<svg xmlns="http://www.w3.org/2000/svg" viewBox="0 0 431.31 261.61"><defs><style>.cls-1{opacity:0.5;}.cls-2{fill:#fff;}</style></defs><g id="Capa_2" data-name="Capa 2"><g id="Capa_1-2" data-name="Capa 1"><rect class="cls-1" y="33.95" width="431.31" height="33"/><rect class="cls-1" y="181.31" width="431.31" height="80.3"/><path class="cls-2" d="M7.27.94h13L30.37,40.45h.19V.94H39.8V67H29.15L16.7,18.77h-.19V67H7.27Z"/><path class="cls-2" d="M50.84,63.56q-4.06-4.34-4.06-12.26V16.6q0-7.92,4.06-12.26T62.53,0q7.64,0,11.69,4.34T78.28,16.6V51.3q0,7.92-4.06,12.26T62.53,67.89Q54.9,67.89,50.84,63.56ZM67.9,52v-36q0-6.51-5.37-6.51c-3.58,0-5.38,2.17-5.38,6.51V52c0,4.33,1.8,6.5,5.38,6.5S67.9,56.29,67.9,52Z"/><path class="cls-2" d="M108.45,10.37H97.61V.94h32.06v9.43H118.82V67H108.45Z"/><path class="cls-2" d="M134.66.94H163v9.43H145V27.82h14.24v9.43H145V57.52H163V67H134.66Z"/><path class="cls-2" d="M184,.94h15.28q7.73,0,11.59,4.15t3.87,12.17v6.5q0,8-3.87,12.17t-11.59,4.15h-4.91V67H184Zm15.28,29.71a4.87,4.87,0,0,0,3.81-1.42q1.27-1.41,1.28-4.81V16.6q0-3.41-1.28-4.81a4.83,4.83,0,0,0-3.81-1.42h-4.91V30.65Z"/><path class="cls-2" d="M220.38.94h10.37V67H220.38Z"/><path class="cls-2" d="M238.48.94h28.29v9.43H248.85V27.82h14.24v9.43H248.85V57.52h17.92V67H238.48Z"/><path class="cls-2" d="M272.71.94h15.37q8,0,11.69,3.73t3.68,11.45v4.06q0,10.28-6.79,13v.19A8.14,8.14,0,0,1,302,38a23.26,23.26,0,0,1,1.55,9.34v11.6c0,1.88.07,3.41.19,4.57a11.41,11.41,0,0,0,.95,3.44H294.11a15.83,15.83,0,0,1-.75-3,44.2,44.2,0,0,1-.19-5.09V46.77c0-3-.49-5.12-1.46-6.32s-2.66-1.79-5-1.79h-3.59V67H272.71Zm14.14,28.29a6.21,6.21,0,0,0,4.67-1.6q1.56-1.61,1.56-5.38V17.16c0-2.39-.43-4.11-1.28-5.18a4.78,4.78,0,0,0-4-1.61h-4.72V29.23Z"/><path class="cls-2" d="M310.71.94h15.84q7.74,0,11.6,4.15T342,17.26V50.64q0,8-3.87,12.16T326.55,67H310.71Zm15.65,56.58A5,5,0,0,0,330.28,56c.91-1,1.37-2.64,1.37-4.9V16.78q0-3.39-1.37-4.9a5,5,0,0,0-3.92-1.51h-5.28V57.52Z"/><path class="cls-2" d="M356.82.94h14.05l10.75,66H371.25l-1.89-13.11V54H357.58L355.69,67h-9.62Zm11.32,44.13-4.62-32.62h-.19L358.8,45.07Z"/><path class="cls-2" d="M388.41,63.6q-3.87-4.29-3.87-12.3V47.53h9.81v4.52c0,4.28,1.79,6.41,5.38,6.41a5,5,0,0,0,4-1.55c.92-1,1.37-2.72,1.37-5a14,14,0,0,0-1.88-7.3,35.1,35.1,0,0,0-7-7.6q-6.42-5.66-9-10.23a20.83,20.83,0,0,1-2.55-10.32q0-7.83,4-12.12T400.2,0q7.44,0,11.27,4.29t3.82,12.31v2.73h-9.81V15.94q0-3.4-1.32-4.95a4.79,4.79,0,0,0-3.87-1.56c-3.46,0-5.18,2.11-5.18,6.32A12.42,12.42,0,0,0,397,22.44a37.07,37.07,0,0,0,7,7.55q6.51,5.65,9,10.27a22.8,22.8,0,0,1,2.45,10.85q0,8.12-4,12.45t-11.65,4.33Q392.28,67.89,388.41,63.6Z"/><path class="cls-2" d="M7,73.49H42.7L70.36,181.81h.52V73.49H96.21v181H67L32.88,122.35h-.52v132.1H7Z"/><path class="cls-2" d="M139.38,73.49H177.9l29.47,181H178.94l-5.18-35.93V219H141.45l-5.17,35.41H109.91Zm31,121L157.74,105h-.52l-12.41,89.45Z"/><path class="cls-2" d="M221.07,73.49H264.5q21.19,0,31.8,11.37t10.6,33.35v91.52q0,22-10.6,33.35t-31.8,11.37H221.07ZM264,228.6q7,0,10.73-4.14T278.46,211v-94.1q0-9.3-3.75-13.44T264,99.34H249.51V228.6Z"/><path class="cls-2" d="M347.48,73.49H386l29.47,181H387l-5.17-35.93V219H349.55l-5.17,35.41H318Zm31,121L365.84,105h-.52l-12.41,89.45Z"/></g></g></svg>