<svg xmlns="http://www.w3.org/2000/svg" viewBox="0 0 900.29 260.22"><defs><style>.cls-1{fill:#daa196;}.cls-2{fill:#fefeff;}</style></defs><title>Logo</title><g id="Capa_2" data-name="Capa 2"><g id="Capa_1-2" data-name="Capa 1"><path class="cls-1" d="M273.62,11.4,193.86,248.62a8.78,8.78,0,0,0,12,10.78l72.46-33.13a8.78,8.78,0,0,1,7.3,0l72.46,33.13a8.78,8.78,0,0,0,12-10.78L290.26,11.4A8.78,8.78,0,0,0,273.62,11.4Z"/><path class="cls-2" d="M0,81.75V54.36H20.5v-41h38v41H82.42V81.75H58.54v77.7q0,9,2.3,11.26t14,2.23c1.16,0,2.4,0,3.71-.07s2.58-.11,3.84-.2V201.4l-18.21.68Q37,203,27,192.63,20.5,186,20.5,172.26V81.75Z"/><path class="cls-2" d="M188.79,49.58c.49,0,1.59.11,3.3.2V89.17c-2.43-.27-4.58-.45-6.47-.54s-3.42-.14-4.59-.14q-23.21,0-31.16,15.11-4.45,8.5-4.45,26.17v70.28H106.7V53h36.69V78.64q8.91-14.7,15.52-20.1,10.78-9,28.06-9C187.68,49.51,188.29,49.53,188.79,49.58Z"/><path class="cls-2" d="M458.85,53h41.28l-53.1,147H406.49L353.76,53h43.17l30.62,108.46Z"/><path class="cls-2" d="M561.44,35.48h-39V0h39ZM522.45,53h39v147h-39Z"/><path class="cls-2" d="M717.23,61.45Q731.68,73.38,731.67,101v99H692.29V110.61q0-11.6-3.08-17.8-5.64-11.34-21.43-11.33-19.41,0-26.65,16.59-3.75,8.78-3.75,22.39v79.59H598.94V53.29h37.23V74.73q7.38-11.32,14-16.32,11.82-8.91,30-8.9Q702.8,49.51,717.23,61.45Z"/><path class="cls-2" d="M840.16,52.88q14,5.81,22.63,21.31V53h37.5V192.5q0,28.45-9.57,42.89-16.47,24.83-63.13,24.83-28.2,0-46-11.07t-19.7-33.05h41.82q1.62,6.75,5.26,9.72,6.21,5.25,20.91,5.26,20.77,0,27.79-13.9,4.58-8.9,4.58-29.94v-9.45q-5.52,9.45-11.87,14.17-11.46,8.76-29.81,8.77-28.32,0-45.26-19.9t-16.93-53.89q0-32.79,16.31-55.11T820.9,49.51A50.49,50.49,0,0,1,840.16,52.88ZM853.25,158.3q9.27-10.19,9.27-32.44,0-20.91-8.8-31.84T830.15,83.1q-20.14,0-27.81,19-4,10.11-4,24.95a57.06,57.06,0,0,0,4.3,22.8q7.78,18.62,27.94,18.62A29.52,29.52,0,0,0,853.25,158.3Z"/></g></g></svg>