<svg xmlns="http://www.w3.org/2000/svg" viewBox="0 0 3781.56 883.89"><defs><style>.cls-1{fill:#01d7ff;}.cls-2{fill:#7f8488;}.cls-3{fill:#fe1c3c;}.cls-4{fill:#01f04f;}.cls-5{fill:#ffcb00;}</style></defs><title>logo_playstore</title><g id="Capa_2" data-name="Capa 2"><g id="Capa_4" data-name="Capa 4"><path class="cls-1" d="M15.8,869.55C3.51,857,1.54,840.82.06,824.48c-.12-1.32,0-2.66,0-4Q0,441.77.08,63c0-13.73,2-27.13,8.73-39.45,1.91-3.52,3.72-7.09,7.26-9.31,8.82,8.52,17.7,17,25.76,26.26C51,51.09,62.29,59.44,72.07,69.38c70.87,72,144.14,141.64,213.62,215,6.39,6.76,13.91,12.27,20.47,18.79q65.82,65.37,131.39,131c2.34,2.34,5,4.39,6.55,7.45-2.49,2.66-4.92,5.39-7.49,8Q315,571.27,193.33,692.88,108.27,777.93,23.17,863C20.84,865.27,18.91,868.09,15.8,869.55Z"/><path class="cls-2" d="M1283.45,397.52q46.48,0,93,0c8.76,0,9.32.38,10.25,8.38,5.13,44.28.45,87.33-20,127.32-26.5,51.91-69.3,85-125.58,98.5-72.06,17.36-139,4.44-198.11-41.3-46.22-35.77-75.07-83.09-83-141-10.92-80,16.28-146.77,77-199.54a212.35,212.35,0,0,1,118.12-51.62c65.54-7.2,124.07,9.75,173.44,54.69,4.85,4.42,4.92,4.58.29,9.26q-16.5,16.69-33.21,33.2c-4.72,4.65-5,4.73-10.44-.05a147.17,147.17,0,0,0-49.64-29.17c-94.22-32.12-190.89,24.37-208.43,118.8-12.91,69.45,10,126,67.93,167,21.83,15.49,46.87,23.55,73.71,25.29s53.28-.72,78.25-11.7c43-18.92,70-50.79,77.71-97.82,1.46-8.89,1.12-9.37-8.51-9.38q-60.46-.06-120.93,0c-2.33,0-4.67-.14-7,0-5.32.38-6.87-2.25-6.81-7.23.2-15.32,0-30.63.1-45.95,0-7.53.19-7.69,7.94-7.7Q1236.47,397.45,1283.45,397.52Z"/><path class="cls-3" d="M15.8,869.55c3.11-1.46,5-4.28,7.37-6.6q85.11-85,170.16-170.07Q315,571.26,436.61,449.62c2.57-2.58,5-5.31,7.49-8l2.34-.26c1.28,4,4.76,6.31,7.52,9.09q67.86,68.1,135.79,136.1c-24.77,14.21-49.5,28.49-74.33,42.61Q301.81,750.71,88.16,872.13c-10.51,6-21.64,10.26-33.74,11.45C39.36,885.07,26.09,881.33,15.8,869.55Z"/><path class="cls-4" d="M446.44,441.39l-2.34.26c-1.53-3.06-4.21-5.11-6.55-7.45q-65.66-65.55-131.39-131c-6.56-6.52-14.08-12-20.47-18.79-69.48-73.39-142.75-143-213.62-215C62.29,59.44,51,51.09,41.83,40.53c-8.06-9.29-16.94-17.74-25.76-26.26C30.24-1,47.65-2.41,66.49,2.59c8.43,2.23,16.13,6.2,23.66,10.48Q314.37,140.38,538.56,267.73c17,9.68,34,19.47,51,29.21-2.21,2.45-4.33,5-6.66,7.34q-64.51,64.55-129.07,129.06C451.26,435.91,448.9,438.7,446.44,441.39Z"/><path class="cls-2" d="M2246.38,607.85c-3.91-.05-4.92,2.4-6.54,3.88-24.21,22.12-52.83,29.59-84.94,26-53.73-6.05-106.9-48.94-119.4-114.43-14.53-76.11,35-152.46,111.38-167.13,35.65-6.85,68.17.58,95,26.61.92.89,1.72,2.07,4.71,1.2,0-4.63.12-9.77,0-14.91-.12-4,.93-6.21,5.52-6.18,16,.13,32,.06,48-.07,4.11,0,6.3,1.35,6,5.73-.13,2,0,4,0,6,0,81.59.11,163.17-.08,244.75-.05,23.07-3,45.79-11.41,67.52-17.81,46-52.1,70.85-100.16,78-32.31,4.79-63.06.31-91.65-16-24.75-14.13-42.9-34.5-55.54-59.88-3.2-6.43-3.08-6.62,3.48-9.38,14.11-5.93,28.33-11.58,42.36-17.68,4.3-1.87,6.35-1.3,8.45,3.05a88.67,88.67,0,0,0,22.73,28.8c26.91,23,70.34,19.48,92.49,3.33,16-11.68,24-28.08,27.71-47C2247.19,636.23,2246.83,622.27,2246.38,607.85ZM2096.06,488.24c-.1,31.34,6.17,50,20.49,66.87,31.26,36.87,90.13,38.34,119.76-6.64,20.19-30.63,19.29-76.31-1.93-106.7-21-30-59.51-40.36-92.12-23.77C2110.6,434.11,2097,461.55,2096.06,488.24Z"/><path class="cls-2" d="M2828.87,420.18V226.38c0-2,0-4,0-6,.12-8.66.13-8.76,8.87-8.76,48.3,0,96.63-1.07,144.89.37,49,1.45,89.11,21.85,115.42,64.17,38,61.12,15.75,141.92-47.62,176.74-22,12.08-45.4,18.69-70.65,18.52-26.32-.17-52.64-.06-78.95,0-8.74,0-8.85.11-8.86,8.77q-.06,68.93,0,137.85c0,2.33-.12,4.67,0,7,.22,4-1.83,5.24-5.46,5.23q-26-.07-52,0c-4.39,0-5.84-2.29-5.67-6.29.09-2.32,0-4.66,0-7ZM2892,341.71c0,21.28-.05,42.56,0,63.83,0,7.52.16,7.66,7.77,7.68,27.61,0,55.21-.05,82.82,0a70.84,70.84,0,0,0,15.78-2.09c39.1-8.77,65.45-53,51.39-92.12-10.95-30.51-36.82-48.68-71.41-49.16-25.94-.37-51.88-.12-77.82-.06-8.45,0-8.52.14-8.55,9.08Q2891.91,310.29,2892,341.71Z"/><path class="cls-5" d="M446.44,441.39c2.46-2.69,4.82-5.48,7.39-8.05Q518.35,368.8,582.9,304.28c2.33-2.34,4.45-4.89,6.66-7.34,5.33,1.18,9.6,4.55,14.19,7.14q76,43,151.86,86.22c8.72,5,17,10.5,24,17.79,19.07,19.91,19.61,44.75,1.34,65.37a75.45,75.45,0,0,1-19.29,15.71Q675.73,538,589.75,586.58q-67.9-68-135.79-136.1C451.2,447.7,447.72,445.43,446.44,441.39Z"/><path class="cls-2" d="M3432.56,598.26c-3.34.56-4,2.23-4.9,3.49-16.21,22.06-38.21,33.23-65.28,35.59-24.25,2.11-47.12-2.14-68.36-13.94-45.56-25.31-55.6-73.94-39.76-111.2,9.48-22.29,27.08-37,48.65-46.59,40.59-18,81.7-19.47,122.89-1.46,1.8.79,3.48,2,6.22,1.6,1.7-13-2.91-23.9-11.17-33.58-9.21-10.8-21.32-16.91-34.87-20.13a84.64,84.64,0,0,0-38.58.1c-14.25,3.23-25.78,10.66-33.74,23-2.29,3.56-4.2,5.31-8.74,3.31-14.62-6.41-29.45-12.34-44.13-18.61-5.82-2.48-6-3.07-2.89-8.92,8.56-16.34,21-29,36.64-38.68,45.38-28,114.28-25.13,156.84,6.76,23,17.22,36,40.56,40.43,68.75a183,183,0,0,1,1.88,28.85q-.14,69.42,0,138.84c0,2,0,4,0,6-.19,7.5-.2,7.63-7.9,7.67q-23,.14-46,0c-7,0-7.07-.21-7.19-7.41C3432.46,614.08,3432.56,606.44,3432.56,598.26Zm-54.64-95.15c-5,0-10-.48-14.92.09-15,1.77-29.42,5.6-40.89,16.29-19.86,18.5-15.56,45.7,9.1,57,15.75,7.2,32.06,7.84,48.54,2.59,26.79-8.53,43.76-26.68,51.5-53.5,2.41-8.35,1.74-9.15-6.07-12.93A92.9,92.9,0,0,0,3377.92,503.11Z"/><path class="cls-2" d="M1695.14,496.27c1.41,77-59.17,142.14-142.42,142.28-78.54.14-143.41-58.74-143.14-142.88.25-82.49,63.42-141.86,143.27-141.66C1639.66,354.22,1696.82,422.24,1695.14,496.27Zm-222.62.33c.1,18.11,4,32.64,12.81,47.52,25.34,42.85,84.62,51.58,120.34,17,27-26.13,33-58.52,22.71-93.64-15.65-53.24-78.36-74.62-122.14-42C1482.7,443.13,1472.54,467.61,1472.52,496.6Z"/><path class="cls-2" d="M2006.86,497.14c.87,76-59.39,141.74-143.36,141.41-78.16-.31-142.43-59.13-142.21-142.76.22-83,63.84-142.47,144.08-141.77C1951.74,354.77,2008.57,422.45,2006.86,497.14ZM1784,496.58c.44,5.62.52,11.31,1.44,16.87a89.52,89.52,0,0,0,5.2,18.16c21.34,54.31,89.72,68.1,130.25,26.22,31.22-32.25,31.44-90.16.47-122.8-31.59-33.31-83.28-33.15-114.58.45C1790.8,452.66,1784,473.33,1784,496.58Z"/><path class="cls-2" d="M2514.83,540.46c12,22.9,29.66,37.62,56.14,41,31.93,4.1,57.48-6.81,77.15-31.84,5.13-6.53,4.86-6.71,11.62-2.18,11.88,8,23.84,15.82,35.69,23.83,6.18,4.18,6.27,4.42,1.55,10.59-22.36,29.23-51.47,48.19-87.78,54.44-43.19,7.43-82.92-1.64-117-29.86-31.11-25.73-47.26-59.47-49.85-99.67-1.92-29.86,2.89-58.42,17.87-84.68,22.27-39.06,55.71-61.9,100.5-67,53.11-6.05,92.86,16.05,122,59.48,8.61,12.81,14.06,27.1,19.87,41.26,1.81,4.42.09,5.77-3.54,7.26-24,9.84-47.93,19.85-71.9,29.76Q2574.59,514.6,2522,536.27C2519.61,537.27,2517,538,2514.83,540.46Zm-10-50.2c2.93.67,4.59-.75,6.36-1.48q54.26-22.45,108.46-45c12.46-5.17,12.8-6.55,3.76-16.49a46,46,0,0,0-12.45-9.84c-15.6-8.3-31.94-10.48-49.15-6.09C2526.6,420.28,2501.26,455.2,2504.78,490.26Z"/><path class="cls-2" d="M3781.56,363.89c-5,11.63-10.1,23.43-15.22,35.21Q3690.1,574.27,3614,749.47c-2.3,5.28-4.91,7.6-11,7.46-18.61-.41-37.24-.15-55.67-.15-1.42-3.47.58-5.63,1.62-7.94,18.14-40.33,36.14-80.74,54.69-120.88,3.94-8.53,4.12-15.46.18-24.29-34.82-78-69.08-156.34-103.46-234.58-.76-1.73-2.16-3.4-1.46-5.62,1.81-2.06,4.28-1.34,6.49-1.35,17-.06,34,.22,50.93-.16,6.26-.14,9.43,2,11.8,7.86,17,42.24,34.42,84.35,51.7,126.51,5.54,13.53,11.05,27.09,16.67,40.59.84,2,1.23,4.45,3.4,5.9,3.32-2.26,3.77-5.69,4.93-8.63q31.59-79.76,63.1-159.54c1-2.47,2.2-4.87,3-7.41,1.14-3.77,3.55-5.2,7.4-5.17,20.3.15,40.61.18,60.91.3C3779.72,362.38,3780.24,363,3781.56,363.89Z"/><path class="cls-2" d="M2411.86,421.19V617.94c0,2.33-.1,4.67,0,7,.19,3.82-1.56,5.36-5.34,5.34-17.65-.08-35.3-.06-53,0-3.31,0-4.89-1.51-4.79-4.84.06-2,0-4,0-6V222.9c0-2,.1-4,0-6-.2-3.8,1.52-5.34,5.31-5.32,17.66.09,35.31.07,53,0,3.35,0,4.86,1.52,4.8,4.82-.05,2.67,0,5.33,0,8Z"/><path class="cls-2" d="M3150.36,420.22V226.44c0-1.67,0-3.33,0-5,.07-9.75.07-9.79,9.8-9.81,15.32,0,30.64.16,46-.1,5.16-.09,7.45,1.68,7.13,6.83-.13,2,0,4,0,6q0,196.79,0,393.55c0,13.55.43,12.34-12.55,12.35-13.66,0-27.32,0-41,0-9.28,0-9.35-.09-9.36-9.25q0-77.91,0-155.83Z"/></g></g></svg>