<svg xmlns="http://www.w3.org/2000/svg" viewBox="0 0 600 600"><defs><style>.cls-1{fill:#6da444;}.cls-2{fill:#d70027;}.cls-3{fill:#efefef;}</style></defs><g id="Capa_2" data-name="Capa 2"><g id="Capa_1-2" data-name="Capa 1"><path class="cls-1" d="M200.42,599.9H.11Q.11,302.65,0,5.38C0,1,1,0,5.38,0q97.52.24,195,.11c-.1,2.34-.28,4.67-.28,7q0,292.9,0,585.8C200.14,595.24,200.32,597.57,200.42,599.9Z"/><path class="cls-2" d="M399.56.11Q497.32.11,595.08,0c3.75,0,4.92.41,4.92,4.66q-.21,295.33,0,590.66c0,4.25-1.17,4.67-4.92,4.66q-97.77-.19-195.52-.1c.1-2.13.3-4.27.3-6.4q0-293.49,0-587C399.86,4.38,399.66,2.25,399.56.11Z"/><path class="cls-3" d="M399.56.11c.1,2.14.3,4.27.3,6.41q0,293.49,0,587c0,2.13-.2,4.27-.3,6.4H200.42c-.1-2.33-.28-4.66-.28-7q0-292.9,0-585.8c0-2.33.18-4.66.28-7Z"/></g></g></svg>