<svg xmlns="http://www.w3.org/2000/svg" viewBox="0 0 600 600"><defs><style>.cls-1{fill:#fe4b55;}.cls-2{fill:#464655;}.cls-3{fill:#73ae00;}.cls-4{fill:#f4f4f4;}.cls-5{fill:#7ea03d;}.cls-6{fill:#65656d;}</style></defs><g id="Capa_2" data-name="Capa 2"><g id="Capa_1-2" data-name="Capa 1"><path class="cls-1" d="M186.36,599.89q-90.78,0-181.56.11c-4,0-4.8-.79-4.8-4.8Q.2,300,0,4.8C0,.79.78,0,4.8,0Q95.58.24,186.36.11l-.06,199.06c-1.07.53-.72,1,.06,1.45l-.06,198.84.07.27c-1.27.28-.86.71-.11,1.17Z"/><path class="cls-2" d="M186.36,599.89q0-99.5-.1-199c0-.39.07-.78.11-1.17l-.07-.27c2.34.08,4.67.22,7,.22H593.43c2.14,0,4.29-.08,6.43-.12q0,97.73.14,195.44c0,4.51-1.28,5-5.21,5Q390.57,599.82,186.36,599.89Z"/><path class="cls-3" d="M186.3,199.17,186.36.11Q390.77.11,595.18,0c4,0,4.81.79,4.8,4.8q-.26,97.23-.12,194.46-130.74,0-261.47,0Q262.34,199.25,186.3,199.17Z"/><path class="cls-4" d="M599.86,399.57c-2.14,0-4.29.12-6.43.12H193.3c-2.33,0-4.66-.14-7-.22l.06-198.84c2.53-.06,5.06-.18,7.59-.18H599.86Z"/><path class="cls-5" d="M599.86,200.43H194c-2.53,0-5.06.12-7.59.18-.78-.45-1.13-.92-.06-1.45q76.05,0,152.09.08,130.74,0,261.47,0Z"/><path class="cls-6" d="M186.37,399.73c0,.39-.07.78-.11,1.17C185.51,400.44,185.1,400,186.37,399.73Z"/></g></g></svg>