<svg xmlns="http://www.w3.org/2000/svg" viewBox="0 0 600 600"><defs><style>.cls-1{fill:#fefefe;}.cls-2{fill:#d70127;}.cls-3{fill:#0152b3;}.cls-4{fill:#050505;}.cls-5{fill:#060606;}</style></defs><g id="Capa_2" data-name="Capa 2"><g id="Capa_1-2" data-name="Capa 1"><path class="cls-1" d="M599.89,300.62q0,147.26.11,294.52c0,3.94-.67,4.84-4.76,4.84Q300.12,599.79,5,600C.44,600,0,598.69,0,594.78Q.17,300,0,5.14C0,1,.73,0,5.05,0q294.84.2,589.68,0C599.37,0,600,1.32,600,5.51Q599.8,153.06,599.89,300.62Zm-410.28-.53C189.27,360.9,238.86,410.48,300,410.48S410.73,360.9,410.39,300.09c-.66-61.94-48.72-110.21-110.1-110.59C239.18,189.12,190.27,238,189.61,300.09Zm-17-205.54c-.68-.75-1.17-1.35-1.72-1.9-5.09-5.11-10.32-10.1-15.25-15.36-2.18-2.33-3.31-1.31-5,.4q-36.34,36.48-72.83,72.81c-2.06,2-2.48,3.27-.16,5.44,5,4.65,9.81,9.5,14.49,14.47,1.92,2.05,3,2.11,5.06.07q36.51-36.71,73.18-73.28C171.14,96.4,171.81,95.46,172.58,94.55ZM211.93,134c-1,.91-1.83,1.64-2.62,2.43q-36.47,36.44-72.93,72.85c-1.8,1.79-2.59,3-.33,5.09,5.11,4.81,10.06,9.82,14.92,14.89,1.73,1.81,2.92,2,4.67.07,2.34-2.61,4.93-5,7.41-7.49,21.54-21.53,43-43.16,64.7-64.51,3.39-3.34,3.19-5.12-.13-8.06-4.53-4-8.62-8.49-12.91-12.75C213.89,135.72,213,135,211.93,134Zm-.18,331.88a16,16,0,0,0,1.92-1.43c5.41-5.36,10.73-10.81,16.21-16.09,2.13-2.05.38-3-.79-4.2q-36.63-36.66-73.25-73.35c-2-2-3.19-1.92-5.1.12-4.54,4.83-9.22,9.56-14.08,14.08-2.37,2.21-2.52,3.52-.08,5.93Q173,427,209.12,463.37C209.93,464.18,210.79,465,211.75,465.89Zm-39.09,39.42c-.88-1-1.5-1.71-2.18-2.38Q133.87,466.3,97.3,429.64c-2.31-2.32-3.52-1.85-5.48.22-4.41,4.68-8.93,9.28-13.66,13.64-2.51,2.31-2.87,3.61-.16,6.29q36.41,36,72.45,72.37c2,2,3.2,2.68,5.43.27,4.64-5,9.6-9.71,14.42-14.54C171.08,507.1,171.79,506.25,172.66,505.31Zm245.47-401a29,29,0,0,0-2.45,1.86c-5.4,5.35-10.72,10.79-16.19,16.06-2.48,2.39-.09,3.37,1.1,4.57q36.15,36.22,72.33,72.43c2.15,2.17,3.47,2.94,5.91.26,4.45-4.9,9.18-9.58,14.05-14.06,2.62-2.39,1.91-3.73-.27-5.89q-36.09-35.88-72-71.94A28.65,28.65,0,0,1,418.13,104.3ZM124,202c.9-.8,1.65-1.4,2.32-2.07q36.83-36.79,73.66-73.58c1.81-1.8,1.82-2.89,0-4.65q-7.6-7.27-14.88-14.89c-2-2-3.09-1.85-5,.12q-36.5,36.69-73.23,73.17c-2.08,2.07-1.91,3.18,0,5,5.06,4.86,10,9.9,14.91,14.86C122.4,200.66,123.13,201.24,124,202ZM446.9,75.4a12.6,12.6,0,0,0-1.64,1.16c-5.54,5.49-11,11.06-16.59,16.48-2.2,2.14-.12,3.06,1,4.15,8.09,8.17,16.31,16.21,24.32,24.46,2,2.08,3.22,1.88,5.08-.07,4.7-4.94,9.46-9.83,14.46-14.47,2.37-2.2,2-3.45-.13-5.49-8.1-7.89-16-16-24-23.94C448.55,76.9,447.71,76.16,446.9,75.4Zm77.75,77.73c-.64-.69-1.15-1.27-1.7-1.82-8.4-8.42-16.86-16.77-25.15-25.29-2-2-3-1.4-4.64.27-4.88,5-9.78,10.06-14.9,14.85-2.28,2.12-1.5,3.31.28,5.06q12.1,11.88,24,24c2,2,3.22,2.64,5.48.18,4.6-5,9.59-9.7,14.4-14.54C523.22,155,523.89,154,524.65,153.13ZM397.87,182.38c1-.86,1.73-1.47,2.41-2.15,5-4.95,9.83-10,14.92-14.83,1.89-1.81,1.76-2.86,0-4.62Q402.66,148.5,390.39,136c-1.81-1.87-2.91-1.8-4.64,0C380.88,141,376,146,370.86,150.81c-2.14,2-1.92,3.18,0,5.1,8.23,8,16.3,16.2,24.45,24.31C396.12,181,397,181.65,397.87,182.38ZM465.92,212c-.6-.73-1-1.34-1.56-1.86-8.52-8.55-17.1-17-25.55-25.67-1.82-1.87-2.79-1-4.17.4-4.91,5-9.82,10-14.9,14.83-2,1.88-2.06,3.05,0,5q12.35,12,24.36,24.37c1.86,1.9,3,2.33,5.09.13,4.79-5.11,9.87-10,14.82-14.92C464.63,213.59,465.19,212.82,465.92,212Zm.38,176.87a21.13,21.13,0,0,0-1.78-2.47c-5.34-5.4-10.78-10.7-16-16.18-2-2-3-.63-4.2.61-8.25,8.27-16.44,16.6-24.8,24.77-1.88,1.84-1.67,2.88.09,4.57,4.92,4.71,9.83,9.46,14.43,14.48,2.33,2.55,3.66,2.23,5.89-.09,7.7-8,15.62-15.77,23.49-23.6A24.18,24.18,0,0,1,466.3,388.83Zm-342.46,9.24c-.76.68-1.36,1.17-1.9,1.72-5.11,5.09-10.15,10.25-15.33,15.27-1.75,1.7-1.9,2.78,0,4.62q12.57,12.24,24.84,24.78c1.74,1.77,2.8,2,4.62.06q7.24-7.63,14.89-14.87c2-1.91,2-3.1,0-5.06-8.23-8-16.29-16.22-24.44-24.33A34.06,34.06,0,0,0,123.84,398.07ZM466.09,446.4a17.49,17.49,0,0,0,1.85-1.39c8.7-8.67,17.34-17.39,26.09-26,1.75-1.73.62-2.64-.5-3.76-5.1-5.1-10.28-10.12-15.25-15.34-1.86-2-3-1.57-4.65.14q-12.3,12.51-24.8,24.8c-1.88,1.84-1.7,2.9.07,4.61,5.2,5,10.23,10.16,15.33,15.25C464.77,445.25,465.36,445.74,466.09,446.4Zm-49-9.52c-.54-.67-.85-1.15-1.25-1.55-5.5-5.52-11-11-16.49-16.55-1.69-1.71-2.6-.41-3.7.69-8.27,8.25-16.52,16.52-24.84,24.72-1.62,1.6-2.33,2.72-.28,4.67,5.23,4.95,10.31,10.07,15.29,15.27,1.91,2,3,1.37,4.66-.3,8.06-8.18,16.24-16.26,24.36-24.39C415.65,438.64,416.35,437.74,417.1,436.88Zm107.5,10a11.85,11.85,0,0,0-1.12-1.63c-5.49-5.53-11.05-11-16.47-16.58-2.09-2.17-3-.23-4.15.88-8.15,8.1-16.2,16.31-24.43,24.34-2,2-2,3.16,0,5.08,4.95,4.69,9.82,9.47,14.46,14.46,2.17,2.33,3.41,2,5.49-.09,7.87-8.1,15.93-16,23.92-24C523.09,448.56,523.84,447.72,524.6,446.9Zm-342,48.37c.86-.72,1.48-1.17,2-1.71,5.24-5.21,10.38-10.54,15.75-15.63,2.35-2.23.58-3.27-.76-4.61-8-8-16-15.93-23.9-24-2-2.05-3.32-2.46-5.48-.15-4.65,5-9.49,9.79-14.44,14.47-2,1.88-2.25,3-.12,5.06,8.38,8.13,16.57,16.47,24.84,24.72C181.11,494.05,181.81,494.61,182.56,495.27Zm264-29c-.6-.69-1.05-1.26-1.56-1.78-5.36-5.37-10.8-10.69-16.08-16.14-1.93-2-2.92-.57-4.16.67-8.11,8.13-16.2,16.3-24.39,24.36-1.82,1.78-2.55,2.94-.25,5.07,5.13,4.77,10.07,9.77,14.88,14.87,2.06,2.19,3.22,1.61,5-.25,7.89-8.09,15.93-16,23.91-24C444.75,468.2,445.51,467.35,446.55,466.25Zm.21,58.42c.62-.54,1.18-1,1.68-1.48,8.55-8.53,17-17.11,25.65-25.57,1.72-1.69,1.45-2.68-.13-4.21-5.18-5-10.31-10.07-15.27-15.29-1.9-2-3-1.47-4.64.21-8.19,8.32-16.43,16.61-24.79,24.77-1.95,1.9-1.52,3,.19,4.62,5,4.87,9.94,9.89,14.9,14.84C445,523.23,445.79,523.83,446.76,524.67Z"/><path class="cls-2" d="M189.61,300.09c.66-62.1,49.57-111,110.68-110.59,61.38.38,109.44,48.65,110.1,110.59Z"/><path class="cls-3" d="M189.61,300.09H410.39c.34,60.81-49.25,110.39-110.39,110.39S189.27,360.9,189.61,300.09Z"/><path class="cls-4" d="M172.58,94.55c-.77.91-1.44,1.85-2.25,2.65q-36.6,36.63-73.18,73.28c-2,2-3.14,2-5.06-.07-4.68-5-9.5-9.82-14.49-14.47-2.32-2.17-1.9-3.4.16-5.44q36.51-36.31,72.83-72.81c1.71-1.71,2.84-2.73,5-.4,4.93,5.26,10.16,10.25,15.25,15.36C171.41,93.2,171.9,93.8,172.58,94.55Z"/><path class="cls-4" d="M211.93,134c1.08,1,2,1.71,2.78,2.52,4.29,4.26,8.38,8.75,12.91,12.75,3.32,2.94,3.52,4.72.13,8.06-21.71,21.35-43.16,43-64.7,64.51-2.48,2.48-5.07,4.88-7.41,7.49-1.75,1.95-2.94,1.74-4.67-.07-4.86-5.07-9.81-10.08-14.92-14.89-2.26-2.12-1.47-3.3.33-5.09q36.51-36.37,72.93-72.85C210.1,135.65,211,134.92,211.93,134Z"/><path class="cls-4" d="M211.75,465.89c-1-.92-1.82-1.71-2.63-2.52Q172.86,427.13,136.58,391c-2.44-2.41-2.29-3.72.08-5.93,4.86-4.52,9.54-9.25,14.08-14.08,1.91-2,3.06-2.16,5.1-.12q36.56,36.75,73.25,73.35c1.17,1.17,2.92,2.15.79,4.2-5.48,5.28-10.8,10.73-16.21,16.09A16,16,0,0,1,211.75,465.89Z"/><path class="cls-4" d="M172.66,505.31c-.87.94-1.58,1.79-2.36,2.58-4.82,4.83-9.78,9.54-14.42,14.54-2.23,2.41-3.48,1.7-5.43-.27Q114.33,485.88,78,449.79c-2.71-2.68-2.35-4,.16-6.29,4.73-4.36,9.25-9,13.66-13.64,2-2.07,3.17-2.54,5.48-.22q36.49,36.74,73.18,73.29C171.16,503.6,171.78,504.34,172.66,505.31Z"/><path class="cls-4" d="M418.13,104.3a28.65,28.65,0,0,0,2.49,3.29q35.94,36,72,71.94c2.18,2.16,2.89,3.5.27,5.89-4.87,4.48-9.6,9.16-14.05,14.06-2.44,2.68-3.76,1.91-5.91-.26q-36.1-36.28-72.33-72.43c-1.19-1.2-3.58-2.18-1.1-4.57,5.47-5.27,10.79-10.71,16.19-16.06A29,29,0,0,1,418.13,104.3Z"/><path class="cls-4" d="M124,202c-.86-.75-1.59-1.33-2.25-2-5-5-9.85-10-14.91-14.86-2-1.87-2.12-3,0-5q36.74-36.47,73.23-73.17c2-2,3.09-2.17,5-.12q7.26,7.62,14.88,14.89c1.84,1.76,1.83,2.85,0,4.65q-36.89,36.74-73.66,73.58C125.64,200.59,124.89,201.19,124,202Z"/><path class="cls-5" d="M446.9,75.4c.81.76,1.65,1.5,2.44,2.28,8,8,15.92,16,24,23.94,2.1,2,2.5,3.29.13,5.49-5,4.64-9.76,9.53-14.46,14.47-1.86,2-3,2.15-5.08.07-8-8.25-16.23-16.29-24.32-24.46-1.08-1.09-3.16-2-1-4.15,5.59-5.42,11.05-11,16.59-16.48A12.6,12.6,0,0,1,446.9,75.4Z"/><path class="cls-5" d="M524.65,153.13c-.76.91-1.43,1.86-2.23,2.67-4.81,4.84-9.8,9.51-14.4,14.54-2.26,2.46-3.5,1.84-5.48-.18q-11.87-12.1-24-24c-1.78-1.75-2.56-2.94-.28-5.06,5.12-4.79,10-9.82,14.9-14.85,1.61-1.67,2.67-2.29,4.64-.27,8.29,8.52,16.75,16.87,25.15,25.29C523.5,151.86,524,152.44,524.65,153.13Z"/><path class="cls-5" d="M397.87,182.38c-.86-.73-1.75-1.39-2.52-2.16-8.15-8.11-16.22-16.28-24.45-24.31-2-1.92-2.18-3.09,0-5.1C376,146,380.88,141,385.75,136c1.73-1.79,2.83-1.86,4.64,0q12.24,12.56,24.78,24.82c1.79,1.76,1.92,2.81,0,4.62-5.09,4.82-9.95,9.88-14.92,14.83C399.6,180.91,398.84,181.52,397.87,182.38Z"/><path class="cls-5" d="M465.92,212c-.73.86-1.29,1.63-1.95,2.3-5,5-10,9.81-14.82,14.92-2,2.2-3.23,1.77-5.09-.13q-12-12.31-24.36-24.37c-2-2-1.93-3.14,0-5,5.08-4.83,10-9.83,14.9-14.83,1.38-1.41,2.35-2.27,4.17-.4,8.45,8.62,17,17.12,25.55,25.67C464.88,210.62,465.32,211.23,465.92,212Z"/><path class="cls-5" d="M466.3,388.83a24.18,24.18,0,0,0-2.92,2.09c-7.87,7.83-15.79,15.61-23.49,23.6-2.23,2.32-3.56,2.64-5.89.09-4.6-5-9.51-9.77-14.43-14.48-1.76-1.69-2-2.73-.09-4.57,8.36-8.17,16.55-16.5,24.8-24.77,1.24-1.24,2.24-2.65,4.2-.61,5.26,5.48,10.7,10.78,16,16.18A21.13,21.13,0,0,1,466.3,388.83Z"/><path class="cls-5" d="M123.84,398.07a34.06,34.06,0,0,1,2.66,2.19c8.15,8.11,16.21,16.31,24.44,24.33,2,2,2,3.15,0,5.06q-7.63,7.25-14.89,14.87c-1.82,1.92-2.88,1.71-4.62-.06q-12.3-12.51-24.84-24.78c-1.88-1.84-1.73-2.92,0-4.62,5.18-5,10.22-10.18,15.33-15.27C122.48,399.24,123.08,398.75,123.84,398.07Z"/><path class="cls-5" d="M466.09,446.4c-.73-.66-1.32-1.15-1.86-1.69-5.1-5.09-10.13-10.26-15.33-15.25-1.77-1.71-1.95-2.77-.07-4.61q12.54-12.25,24.8-24.8c1.68-1.71,2.79-2.1,4.65-.14,5,5.22,10.15,10.24,15.25,15.34,1.12,1.12,2.25,2,.5,3.76-8.75,8.61-17.39,17.33-26.09,26A17.49,17.49,0,0,1,466.09,446.4Z"/><path class="cls-5" d="M417.1,436.88c-.75.86-1.45,1.76-2.25,2.56-8.12,8.13-16.3,16.21-24.36,24.39-1.63,1.67-2.75,2.29-4.66.3-5-5.2-10.06-10.32-15.29-15.27-2.05-1.95-1.34-3.07.28-4.67,8.32-8.2,16.57-16.47,24.84-24.72,1.1-1.1,2-2.4,3.7-.69,5.47,5.55,11,11,16.49,16.55C416.25,435.73,416.56,436.21,417.1,436.88Z"/><path class="cls-5" d="M524.6,446.9c-.76.82-1.51,1.66-2.3,2.45-8,8-16,15.91-23.92,24-2.08,2.13-3.32,2.42-5.49.09-4.64-5-9.51-9.77-14.46-14.46-2-1.92-2-3.12,0-5.08,8.23-8,16.28-16.24,24.43-24.34,1.12-1.11,2.06-3.05,4.15-.88,5.42,5.6,11,11.05,16.47,16.58A11.85,11.85,0,0,1,524.6,446.9Z"/><path class="cls-5" d="M182.56,495.27c-.75-.66-1.45-1.22-2.09-1.86-8.27-8.25-16.46-16.59-24.84-24.72-2.13-2.06-1.86-3.18.12-5.06,4.95-4.68,9.79-9.49,14.44-14.47,2.16-2.31,3.48-1.9,5.48.15,7.89,8.08,15.93,16,23.9,24,1.34,1.34,3.11,2.38.76,4.61-5.37,5.09-10.51,10.42-15.75,15.63C184,494.1,183.42,494.55,182.56,495.27Z"/><path class="cls-5" d="M446.55,466.25c-1,1.1-1.8,1.95-2.61,2.77-8,8-16,15.94-23.91,24-1.82,1.86-3,2.44-5,.25-4.81-5.1-9.75-10.1-14.88-14.87-2.3-2.13-1.57-3.29.25-5.07,8.19-8.06,16.28-16.23,24.39-24.36,1.24-1.24,2.23-2.67,4.16-.67,5.28,5.45,10.72,10.77,16.08,16.14C445.5,465,446,465.56,446.55,466.25Z"/><path class="cls-5" d="M446.76,524.67c-1-.84-1.73-1.44-2.41-2.11-5-4.95-9.86-10-14.9-14.84-1.71-1.65-2.14-2.72-.19-4.62,8.36-8.16,16.6-16.45,24.79-24.77,1.66-1.68,2.74-2.2,4.64-.21,5,5.22,10.09,10.28,15.27,15.29,1.58,1.53,1.85,2.52.13,4.21-8.61,8.46-17.1,17-25.65,25.57C447.94,523.69,447.38,524.13,446.76,524.67Z"/></g></g></svg>