<svg xmlns="http://www.w3.org/2000/svg" viewBox="0 0 599.89 599.89"><defs><style>.cls-1{fill:#5aa587;}.cls-2{fill:#f3f3f3;}.cls-3{fill:#f9de5b;}</style></defs><g id="Capa_2" data-name="Capa 2"><g id="Capa_1-2" data-name="Capa 1"><path class="cls-1" d="M599.78,300.58q0,147.23.11,294.47c0,4-.72,4.82-4.77,4.81Q300,599.67,5,599.89c-4.57,0-4.94-1.37-4.93-5.24Q.17,299.89,0,5.12C0,1,.79,0,5.06,0q294.8.21,589.58,0c4.67,0,5.24,1.37,5.24,5.52Q599.68,153,599.78,300.58ZM243.13,313.65c-36.54-14.71-71.95-12.55-106.32,6.85-3.87,2.19-4.72,3.78-2.14,7.88A119.48,119.48,0,0,0,178.17,370l7.54,4.16c-2.46,1.32-4.55,0-6.81,1.87,23.76,9.83,47.57,13.48,72.48,7.38-9.58,4.83-52.3-1.26-60-8.51,26.8,0,53.34-.31,79.86.16,9.35.17,17.77-.91,24.9-7.31,2.61-2.33,4.93-2,7.74,0a163.79,163.79,0,0,0,27.83,16.06c35.05,15.78,70.06,17,104.87-.71a95.91,95.91,0,0,0,26.4-19.18c-3.59-.82-6.3-1.13-8.77-2.06-5.11-1.94-9.14-.81-13.34,2.7-5.54,4.63-12,7.93-18.71,10.75-22.63,9.56-45.7,15.18-70.22,7.73a3.22,3.22,0,0,0-3.42,1.22c4.44,2.39,8.87,0,13.17.06,45.06.55,79.5-18.65,103.85-56.44,2.37-3.67,1.46-5.09-1.94-7-34.47-19.71-70.06-21.94-106.81-7.16l-1-1.32c21.56-11.24,44.57-15.82,68.49-12.11,10.27,1.6,13.8-5,20.72-10.34-38-9.12-71.62-3-102.48,19.44,15.88-36.52,14.39-71.77-4.36-107.42-2.11,4.1-3.54,7.29-5.35,10.26-2,3.28-1.92,6.14-.4,9.77,8.87,21.25,10.88,43.34,6.91,66-.57,3.2-.37,6.86-3.23,9.91-.35-1-.75-1.59-.66-2,7.71-40.69-4.09-75.32-32.23-105-3.1-3.28-4.62-1.8-6.9.55-23.85,24.71-35.49,54.08-33.94,88.5.25,5.5.85,11,1.34,17.14-.83-.87-1.18-1.1-1.32-1.42a11.06,11.06,0,0,1-.77-2.2c-4.87-22.86-4.46-45.67,4.58-67.25,4.12-9.84.15-15.86-4.61-23.75-18.74,35.78-20,71.31-3.73,107.71-14.89-11.05-30.86-18.7-48.76-22.11a115,115,0,0,0-53.92,2.26c2.62,2.3,4.5,3.67,6,5.35,4,4.38,8.35,5.42,14.46,4.61a112.93,112.93,0,0,1,68.52,12.25Zm-50.23,95.5H154.85c-1.37,0-2.74,0-4.1.1s-1.84.85-1.33,2.36a13.61,13.61,0,0,0,12.63,9c19.32,0,38.64-.12,58,0,27.92.23,53.05-7.94,75.1-25,4-3.08,6.3-2.53,9.91.23,21.81,16.69,46.53,24.89,74,24.77,19.32-.09,38.64-.24,57.95.13,5.37.1,8.92-1.45,11.32-6.06.79-1.52,3-2.85,2.29-4.45-.94-2.1-3.49-1.07-5.32-1.07q-33.66-.1-67.33-.05c-28.2,0-52.56-10.09-73.55-28.49-3.47-3-5.09-3.43-8.76-.16-20.56,18.27-44.56,28.32-72.31,28.62C213.2,409.23,203.05,409.14,192.9,409.15Zm-11.68,37.26c5.83,6.42,11.49,9.49,19.81,9.44q99.75-.54,199.51,0c8.08,0,12.65-4,18.18-9.43Zm25.34,17.69c8.28,5.48,15.93,11.3,26.71,11.21q66.72-.53,133.45,0c10.77.09,18.38-5.74,26.58-11.21ZM435.4,430.05h-271c3.13,4.55,5.89,7.17,11.5,7.16q124-.3,248.07,0C429.53,437.22,432.41,434.74,435.4,430.05ZM280,165.3c-.23,1.55-.5,2.78.59,3.62s2.25.2,3.22-.44c1.79-1.18,3.52-2.45,5.26-3.7,10.87-7.78,10.8-7.68,21.86,0,2.53,1.76,5.23,6.14,8.24,3.87,2.85-2.15-.29-6.12-1.21-9.12-3.88-12.72-4-12.69,6.52-20.45,1.41-1,2.86-2,4.22-3.14s3.37-2,2.5-4.09c-.67-1.65-2.56-1.51-4.12-1.52-4.68,0-9.37-.25-14,0-3.27.16-5-1-5.87-4.17-1.4-4.86-3.17-9.62-4.78-14.42-.38-1.14-.86-2.3-2.19-2.44-1.73-.18-2.27,1.18-2.72,2.51-1.45,4.24-3.23,8.41-4.24,12.75s-3.07,6.2-7.64,5.79a122.69,122.69,0,0,0-12.28,0c-1.72,0-3.86-.35-4.64,1.59-.86,2.12,1.24,3,2.57,4.06,3.56,2.73,7.08,5.54,10.84,8,3,1.91,3.71,4,2.47,7.3C282.8,156,281.42,160.84,280,165.3Zm77.43,315.4h-115Q299.94,500.86,357.43,480.7Zm22-329.86c-2.58.18-2.26,1.66-1.84,3a79.11,79.11,0,0,0,2.78,7.69c1.38,3.11,1.15,5.53-2,7.4a23.87,23.87,0,0,0-4.11,3.28c-1.34,1.28-4.15,2-3.46,4.17s3.38,1.24,5.21,1.18c11.88-.34,9.33-1.66,13.54,8.95.21.55.39,1.1.63,1.64.52,1.21.69,2.94,2.32,3s2.12-1.72,2.22-2.95c.77-9.37,5.85-13.17,15-12a3.8,3.8,0,0,0,1.16-.1c.92-.17,2.05,0,2.43-1.18s-.57-1.79-1.33-2.34a37.66,37.66,0,0,0-5.29-3.64c-4.43-2.21-5.57-5.21-3.74-9.94,1-2.69,3.59-6.78,1.09-8.45s-5.36,2.24-7.5,4.2c-3.65,3.35-6.76,3.62-10.53.34A50,50,0,0,0,379.41,150.84ZM143,219.69c-.85,0-2.28-.51-2.87.77-.87,1.9,1,2.69,2,3.72,7.79,8.13,7.77,8.1,3.7,17.62-.63,1.47-2.53,3.21-.81,4.71s3.21-.54,4.66-1.27c9.38-4.77,9.37-4.8,17,2a5.49,5.49,0,0,0,.43.4c1.2.87,2.14,2.86,3.81,2.12,2.29-1,.76-3.06.51-4.63-1.7-10.74-1.68-10.66,5.51-14.86,2-1.18,5.91-1.73,5.22-4.47-.58-2.34-4.35-2-6.78-2-5.92-.07-9.55-2.33-9.56-8.75a12.35,12.35,0,0,0-.55-2.86c-.39-1.63-.08-4.06-2.09-4.34s-2.35,2.23-3.11,3.68c-4.86,9.36-4.83,9.38-15.66,8.32C144,219.87,143.62,219.79,143,219.69Zm81.19-42.07c3-.69,7.08,1.74,8.21-1.41.85-2.35-3.12-4.16-5.31-5.45-5.25-3.09-6.19-6.88-3.19-12a6.07,6.07,0,0,0,.81-2.18c.25-1.82,2.55-3.82.67-5.34s-3.51.8-5.05,1.78c-8.37,5.29-8.35,5.32-16.59-.77a5.2,5.2,0,0,0-.47-.35c-1.27-.81-2.44-2.61-4-1.71-2.17,1.22-.44,3.15-.08,4.66,2.42,10.17,2.46,10.16-6.23,16.51a5.09,5.09,0,0,0-.47.34c-1,.85-2.77,1.35-2.47,2.94.41,2.16,2.58,1.62,3.87,1.48,8.91-1,13.81,2.74,14.62,11.72a2.63,2.63,0,0,0,.3,1.12c.51.78,1,2,1.7,2.16,1.43.34,1.86-1.11,2.3-2.16a38.4,38.4,0,0,0,1.82-4.93C215.92,178.91,218.3,175.4,224.14,177.62Zm207.24,67.9c0,2-.67,3.48.54,4.13,1.8,1,3-.63,3.85-1.76,5.41-7.28,11.5-8,18.43-2.23a4.25,4.25,0,0,0,1,.53c1,.4,2.08,1.41,3.15.25s.25-2.37-.35-3.2c-5.7-7.88-4.63-14.39,3.63-19.68.93-.59,2.1-1.63,1.65-2.82-.6-1.61-2.27-1.34-3.55-1-9,2.68-14.92,0-17.16-9.46a2,2,0,0,0-.27-.52c-.61-.95-1.08-2.41-2.46-2a3,3,0,0,0-1.46,2.3c0,9.91-4.58,14.94-14.8,14.27-1-.06-2.52.16-2.75,1.61s1.06,2,2.08,2.44C431.52,231.77,436.44,236.75,431.38,245.52ZM175.57,374.88c-6-3.62-11.3-5.55-14.77-9.23-6.7-7.09-13.74-4.12-21-2.46-1.22.29-2.74,1.05-1.42,2.19,4.17,3.62,7.59,8.91,13.58,9.37C159.26,375.31,166.65,374.88,175.57,374.88Z"/><path class="cls-2" d="M356.75,313.65c36.75-14.78,72.34-12.55,106.81,7.16,3.4,1.95,4.31,3.37,1.94,7-24.35,37.79-58.79,57-103.85,56.44-4.3-.05-8.73,2.33-13.17-.06A3.22,3.22,0,0,1,351.9,383c24.52,7.45,47.59,1.83,70.22-7.73,6.67-2.82,13.17-6.12,18.71-10.75,4.2-3.51,8.23-4.64,13.34-2.7,2.47.93,5.18,1.24,8.77,2.06a95.91,95.91,0,0,1-26.4,19.18c-34.81,17.73-69.82,16.49-104.87.71a163.79,163.79,0,0,1-27.83-16.06c-2.81-2-5.13-2.3-7.74,0-7.13,6.4-15.55,7.48-24.9,7.31-26.52-.47-53.06-.16-79.86-.16,7.74,7.25,50.46,13.34,60,8.51-24.91,6.1-48.72,2.45-72.48-7.38,2.26-1.89,4.35-.55,6.81-1.87L178.17,370a119.48,119.48,0,0,1-43.5-41.62c-2.58-4.1-1.73-5.69,2.14-7.88,34.37-19.4,69.78-21.56,106.32-6.86l2.34,1,1.3.15-.41-1.12-2.21-1.37a113,113,0,0,0-68.52-12.24c-6.11.81-10.48-.23-14.46-4.61-1.53-1.68-3.41-3.05-6-5.35a115,115,0,0,1,53.92-2.26c17.9,3.41,33.87,11.06,48.76,22.11-16.25-36.4-15-71.93,3.73-107.71,4.76,7.89,8.73,13.91,4.61,23.75-9,21.58-9.45,44.39-4.58,67.25a11.06,11.06,0,0,0,.77,2.2c.14.32.49.55,1.32,1.42-.49-6.15-1.09-11.64-1.34-17.14-1.55-34.42,10.09-63.79,33.94-88.5,2.28-2.35,3.8-3.83,6.9-.55,28.14,29.73,39.94,64.36,32.23,105-.09.45.31,1,.66,2,2.86-3.05,2.66-6.71,3.23-9.91,4-22.62,2-44.71-6.91-66-1.52-3.63-1.59-6.49.4-9.77,1.81-3,3.24-6.16,5.35-10.26,18.75,35.65,20.24,70.9,4.36,107.42C373.35,286.89,407,280.76,445,289.88c-6.92,5.32-10.45,11.94-20.72,10.34-23.92-3.71-46.93.87-68.49,12.11l-2.2,1.36-1.64,1a2,2,0,0,0,2.47,0Z"/><path class="cls-2" d="M192.9,409.15c10.15,0,20.3.08,30.44,0,27.75-.3,51.75-10.35,72.31-28.62,3.67-3.27,5.29-2.88,8.76.16,21,18.4,45.35,28.5,73.55,28.49q33.68,0,67.33.05c1.83,0,4.38-1,5.32,1.07.72,1.6-1.5,2.93-2.29,4.45-2.4,4.61-5.95,6.16-11.32,6.06-19.31-.37-38.63-.22-57.95-.13-27.5.12-52.22-8.08-74-24.77-3.61-2.76-5.94-3.31-9.91-.23-22.05,17.07-47.18,25.24-75.1,25-19.32-.15-38.64,0-58,0a13.61,13.61,0,0,1-12.63-9c-.51-1.51-.18-2.23,1.33-2.36s2.73-.1,4.1-.1Z"/><path class="cls-2" d="M181.22,446.41h237.5c-5.53,5.45-10.1,9.47-18.18,9.43q-99.77-.51-199.51,0C192.71,455.9,187.05,452.83,181.22,446.41Z"/><path class="cls-2" d="M206.56,464.1H393.3c-8.2,5.47-15.81,11.3-26.58,11.21q-66.72-.53-133.45,0C222.49,475.4,214.84,469.58,206.56,464.1Z"/><path class="cls-2" d="M435.4,430.05c-3,4.69-5.87,7.17-11.45,7.16q-124-.3-248.07,0c-5.61,0-8.37-2.61-11.5-7.16Z"/><path class="cls-3" d="M280,165.3c1.42-4.46,2.8-9.35,4.56-14.09,1.24-3.31.5-5.39-2.47-7.3-3.76-2.42-7.28-5.23-10.84-8-1.33-1-3.43-1.94-2.57-4.06.78-1.94,2.92-1.57,4.64-1.59a122.69,122.69,0,0,1,12.28,0c4.57.41,6.63-1.44,7.64-5.79s2.79-8.51,4.24-12.75c.45-1.33,1-2.69,2.72-2.51,1.33.14,1.81,1.3,2.19,2.44,1.61,4.8,3.38,9.56,4.78,14.42.91,3.16,2.6,4.33,5.87,4.17,4.67-.22,9.36,0,14,0,1.56,0,3.45-.13,4.12,1.52.87,2.13-1.2,3-2.5,4.09s-2.81,2.1-4.22,3.14c-10.49,7.76-10.4,7.73-6.52,20.45.92,3,4.06,7,1.21,9.12-3,2.27-5.71-2.11-8.24-3.87-11.06-7.65-11-7.75-21.86,0-1.74,1.25-3.47,2.52-5.26,3.7-1,.64-2.08,1.32-3.22.44S279.77,166.85,280,165.3Z"/><path class="cls-2" d="M357.43,480.7q-57.48,20.16-115,0Z"/><path class="cls-3" d="M379.41,150.84A50,50,0,0,1,386,155.1c3.77,3.28,6.88,3,10.53-.34,2.14-2,4.92-5.92,7.5-4.2s-.05,5.76-1.09,8.45c-1.83,4.73-.69,7.73,3.74,9.94a37.66,37.66,0,0,1,5.29,3.64c.76.55,1.71,1.17,1.33,2.34s-1.51,1-2.43,1.18a3.8,3.8,0,0,1-1.16.1c-9.15-1.2-14.23,2.6-15,12-.1,1.23-.46,3-2.22,2.95s-1.8-1.8-2.32-3c-.24-.54-.42-1.09-.63-1.64-4.21-10.61-1.66-9.29-13.54-8.95-1.83.06-4.5,1-5.21-1.18s2.12-2.89,3.46-4.17a23.87,23.87,0,0,1,4.11-3.28c3.17-1.87,3.4-4.29,2-7.4a79.11,79.11,0,0,1-2.78-7.69C377.15,152.5,376.83,151,379.41,150.84Z"/><path class="cls-3" d="M143,219.69c.67.1,1.05.18,1.44.21,10.83,1.06,10.8,1,15.66-8.32.76-1.45,1-4,3.11-3.68s1.7,2.71,2.09,4.34a12.35,12.35,0,0,1,.55,2.86c0,6.42,3.64,8.68,9.56,8.75,2.43,0,6.2-.36,6.78,2,.69,2.74-3.19,3.29-5.22,4.47-7.19,4.2-7.21,4.12-5.51,14.86.25,1.57,1.78,3.62-.51,4.63-1.67.74-2.61-1.25-3.81-2.12a5.49,5.49,0,0,1-.43-.4c-7.63-6.83-7.62-6.8-17-2-1.45.73-3,2.7-4.66,1.27s.18-3.24.81-4.71c4.07-9.52,4.09-9.49-3.7-17.62-1-1-2.9-1.82-2-3.72C140.67,219.18,142.1,219.67,143,219.69Z"/><path class="cls-3" d="M224.14,177.62c-5.84-2.22-8.22,1.29-9.59,6.45a38.4,38.4,0,0,1-1.82,4.93c-.44,1.05-.87,2.5-2.3,2.16-.7-.17-1.19-1.38-1.7-2.16a2.63,2.63,0,0,1-.3-1.12c-.81-9-5.71-12.73-14.62-11.72-1.29.14-3.46.68-3.87-1.48-.3-1.59,1.47-2.09,2.47-2.94a5.09,5.09,0,0,1,.47-.34c8.69-6.35,8.65-6.34,6.23-16.51-.36-1.51-2.09-3.44.08-4.66,1.59-.9,2.76.9,4,1.71a5.2,5.2,0,0,1,.47.35c8.24,6.09,8.22,6.06,16.59.77,1.54-1,3.18-3.29,5.05-1.78s-.42,3.52-.67,5.34a6.07,6.07,0,0,1-.81,2.18c-3,5.08-2.06,8.87,3.19,12,2.19,1.29,6.16,3.1,5.31,5.45C231.22,179.36,227.17,176.93,224.14,177.62Z"/><path class="cls-3" d="M431.38,245.52c5.06-8.77.14-13.75-8.43-17.07-1-.4-2.32-1-2.08-2.44s1.75-1.67,2.75-1.61c10.22.67,14.77-4.36,14.8-14.27a3,3,0,0,1,1.46-2.3c1.38-.43,1.85,1,2.46,2a2,2,0,0,1,.27.52c2.24,9.47,8.19,12.14,17.16,9.46,1.28-.39,3-.66,3.55,1,.45,1.19-.72,2.23-1.65,2.82-8.26,5.29-9.33,11.8-3.63,19.68.6.83,1.36,2.09.35,3.2s-2.13.15-3.15-.25a4.25,4.25,0,0,1-1-.53c-6.93-5.74-13-5-18.43,2.23-.85,1.13-2,2.75-3.85,1.76C430.71,249,431.34,247.56,431.38,245.52Z"/><path class="cls-2" d="M175.57,374.88c-8.92,0-16.31.43-23.62-.13-6-.46-9.41-5.75-13.58-9.37-1.32-1.14.2-1.9,1.42-2.19,7.27-1.66,14.31-4.63,21,2.46C164.27,369.33,169.6,371.26,175.57,374.88Z"/><path class="cls-1" d="M245.47,314.69l-2.34-1.05,1-1.29,2.21,1.36Z"/><path class="cls-1" d="M353.56,313.69l2.2-1.36,1,1.32-2.36,1.06Z"/><path class="cls-1" d="M354.39,314.71a2,2,0,0,1-2.47,0l1.64-1Z"/><path class="cls-1" d="M246.36,313.71l.41,1.12-1.3-.15Z"/></g></g></svg>