<svg xmlns="http://www.w3.org/2000/svg" viewBox="0 0 600 600"><defs><style>.cls-1{fill:#d70027;}.cls-2{fill:#efedee;}.cls-3{fill:#efeded;}</style></defs><g id="Capa_2" data-name="Capa 2"><g id="Capa_1-2" data-name="Capa 1"><path class="cls-1" d="M599.89,300.62q0,147.27.11,294.53c0,3.93-.68,4.83-4.76,4.83Q300.1,599.79,5,600C.43,600,0,598.68,0,594.77Q.17,300,0,5.14C0,1,.74,0,5.05,0q294.84.2,589.69,0C599.38,0,600,1.33,600,5.51Q599.8,153.06,599.89,300.62ZM266.45,385.51c-51.24,16.26-90,7-116.27-27.36-25-32.65-26.9-75.54-4.61-109.93a91.16,91.16,0,0,1,43-35.66c25.81-10.43,51.63-9.4,78.22,2.55-35.72-36.32-105.42-45.92-153.94-3.62-52.24,45.55-55,123.14-6.76,171S227.41,423.82,266.45,385.51Zm-9.21-86.23-.07,1.3c12.51,4.09,25,8.31,37.55,12.18,3.71,1.14,5.28,2.63,5.16,6.81-.34,11.9-.16,23.81-.07,35.71,0,1.34-.91,3.12,1.18,4.12,7.71-10.59,15.57-21,23-31.77,2.28-3.3,4.2-4.12,8-2.77,10.83,3.83,21.81,7.2,32.74,10.75,1.42.46,3.11,1.64,4.16-.06.83-1.32-.75-2.47-1.51-3.53-6.38-8.86-12.5-17.94-19.37-26.4-3.58-4.41-3-7.24.2-11.38,7.82-10.1,15.13-20.6,23.45-32.06-14.24,4.63-27.2,8.72-40.06,13.1-3.27,1.12-5.09.71-7.15-2.26-6.88-9.94-14.08-19.66-21.25-29.39-.79-1.07-1.08-3-3.44-2.7,0,12.32-.48,24.63.2,36.87.36,6.44-2.13,8.7-7.74,10.32C280.49,291.51,268.9,295.52,257.24,299.28Z"/><path class="cls-2" d="M266.45,385.51c-39,38.31-112.16,44.73-160.33-3.05s-45.48-125.42,6.76-171c48.52-42.3,118.22-32.7,153.94,3.62-26.59-12-52.41-13-78.22-2.55a91.16,91.16,0,0,0-43,35.66c-22.29,34.39-20.4,77.28,4.61,109.93C176.46,392.48,215.21,401.77,266.45,385.51Z"/><path class="cls-3" d="M257.24,299.28c11.66-3.76,23.25-7.77,35-11.16,5.61-1.62,8.1-3.88,7.74-10.32-.68-12.24-.2-24.55-.2-36.87,2.36-.32,2.65,1.63,3.44,2.7,7.17,9.73,14.37,19.45,21.25,29.39,2.06,3,3.88,3.38,7.15,2.26,12.86-4.38,25.82-8.47,40.06-13.1-8.32,11.46-15.63,22-23.45,32.06-3.21,4.14-3.78,7-.2,11.38,6.87,8.46,13,17.54,19.37,26.4.76,1.06,2.34,2.21,1.51,3.53-1.05,1.7-2.74.52-4.16.06-10.93-3.55-21.91-6.92-32.74-10.75-3.84-1.35-5.76-.53-8,2.77-7.43,10.74-15.29,21.18-23,31.77-2.09-1-1.17-2.78-1.18-4.12-.09-11.9-.27-23.81.07-35.71.12-4.18-1.45-5.67-5.16-6.81-12.58-3.87-25-8.09-37.55-12.18Z"/></g></g></svg>