<svg xmlns="http://www.w3.org/2000/svg" viewBox="0 0 598.32 598.81"><defs><style>.cls-1{fill:#d70027;}.cls-2{fill:#efefef;}.cls-3{fill:#0152b3;}</style></defs><g id="Capa_2" data-name="Capa 2"><g id="Capa_1-2" data-name="Capa 1"><path class="cls-1" d="M355.19,598.81H243.13q0-118.39.13-236.78c0-5.31-1.31-6.63-6.61-6.62q-118.16.29-236.33.13V243.27q118.17,0,236.33.12c5.3,0,6.62-1.3,6.61-6.61Q243,118.39,243.13,0H355.19q0,118.4-.12,236.77c0,5.32,1.3,6.64,6.6,6.62q118.17-.27,236.33-.12V355.54q-118.17,0-236.33-.13c-5.3,0-6.62,1.31-6.6,6.62Q355.34,480.42,355.19,598.81Z"/><path class="cls-2" d="M243.13,0q0,118.4.13,236.78c0,5.31-1.31,6.63-6.61,6.61q-118.16-.27-236.33-.12V208.18H122.48c-1.35-1.59-1.82-2.22-2.36-2.76Q61.84,147,3.52,88.63c-.88-.89-1.49-2.4-3.2-2.08V59.65C1.91,61,3.6,62.31,5.08,63.79Q75.42,134.2,145.67,204.7a10.76,10.76,0,0,0,8.59,3.66c11.08-.25,22.16-.09,33.24-.09H207l.61-1.39c-1.59-1.37-3.26-2.65-4.74-4.13Q104,103.83,5.32,4.83C3.88,3.4,1.71,2.44,1.49,0H56.36a26.16,26.16,0,0,0,2.08,2.7Q131.57,76,204.75,149.27c.83.83,1.39,2.44,3.36,1.88V0Z"/><path class="cls-2" d="M355.19,598.81q0-118.39-.12-236.78c0-5.31,1.3-6.63,6.6-6.62q118.17.29,236.33.13v35.09H475.84c1.36,1.6,1.82,2.22,2.36,2.76q58.29,58.41,116.6,116.79c.88.89,1.49,2.4,3.2,2.08v26.9c-1.59-1.38-3.28-2.66-4.76-4.15q-70.34-70.41-140.59-140.9a10.76,10.76,0,0,0-8.59-3.66c-11.08.24-22.16.09-33.24.09H391.37l-1,1.79a40.69,40.69,0,0,1,5.11,3.75Q494.3,495,593,594c1.43,1.43,3.6,2.39,3.82,4.83H542a25.21,25.21,0,0,0-2.09-2.7q-73.12-73.32-146.31-146.57c-.83-.84-1.38-2.45-3.36-1.88V598.81Z"/><path class="cls-2" d="M598,243.27q-118.17,0-236.33.12c-5.3,0-6.62-1.3-6.6-6.62q.27-118.38.12-236.77h35V181.46c2-1.87,3.1-2.86,4.15-3.92Q481.45,90.32,568.52,3.07c1-.95,1.76-2,2.63-3.07h25.68c-.06,2.51-2.32,3.42-3.74,4.84q-98.54,98.85-197.16,197.62c-1.57,1.58-3.05,3.25-5.42,5.78h6.78c15.37,0,30.73-.14,46.09.09a12.11,12.11,0,0,0,9.63-4q70-70.41,140.22-140.59c1.47-1.48,2.58-3.43,4.77-4.09v55q-46,45.94-91.95,91.92c-.29.29-.2,1-.32,1.64H598Z"/><path class="cls-2" d="M.32,355.54q118.17,0,236.33-.13c5.3,0,6.62,1.31,6.61,6.62q-.28,118.39-.13,236.78h-35V417.35c-2,1.87-3.1,2.86-4.15,3.92Q116.87,508.5,29.81,595.74c-.95,1-1.76,2-2.64,3.07H1.49c.07-2.52,2.32-3.42,3.74-4.84q98.54-98.85,197.16-197.62c1.57-1.58,3.06-3.26,5.42-5.78H201c-15.36,0-30.73.14-46.09-.1a12.11,12.11,0,0,0-9.63,4Q75.31,464.89,5.1,535.07c-1.48,1.47-2.59,3.43-4.78,4.09v-55q46-45.94,92-91.92c.28-.29.19-1,.31-1.64H.32Z"/><path class="cls-3" d="M571.15,0c-.87,1-1.68,2.12-2.63,3.07Q481.45,90.31,394.36,177.54c-1.05,1.06-2.16,2.05-4.15,3.92V0Z"/><path class="cls-3" d="M27.17,598.81c.88-1,1.69-2.12,2.64-3.07Q116.87,508.49,204,421.27c1-1.06,2.16-2,4.15-3.92V598.81Z"/><path class="cls-3" d="M208.11,0V151.15c-2,.56-2.53-1.05-3.36-1.88Q131.55,76,58.44,2.7A26.16,26.16,0,0,1,56.36,0Z"/><path class="cls-3" d="M390.21,598.81V447.66c2-.57,2.53,1,3.36,1.88q73.2,73.24,146.31,146.57a25.21,25.21,0,0,1,2.09,2.7Z"/><path class="cls-1" d="M1.49,0c.22,2.44,2.39,3.4,3.83,4.83q98.7,99,197.5,197.92c1.48,1.48,3.15,2.76,4.74,4.13l-.61,1.39H187.5c-11.08,0-22.16-.16-33.24.09a10.76,10.76,0,0,1-8.59-3.66Q75.47,134.15,5.08,63.79C3.6,62.31,1.91,61,.32,59.65c0-18.73,0-37.46.08-56.19C.4,2.37-1,.44,1.49,0Z"/><path class="cls-1" d="M596.83,598.81c-.22-2.44-2.39-3.4-3.82-4.83q-98.71-99-197.52-197.9a40.69,40.69,0,0,0-5.11-3.75l1-1.79h19.45c11.08,0,22.16.15,33.24-.09a10.76,10.76,0,0,1,8.59,3.66Q522.87,464.64,593.24,535c1.48,1.49,3.17,2.77,4.76,4.15,0,18.71,0,37.43-.07,56.14C597.92,596.41,599.34,598.34,596.83,598.81Z"/><path class="cls-1" d="M598,59.65c-2.19.66-3.3,2.61-4.77,4.09Q523.06,134,453,204.33a12.11,12.11,0,0,1-9.63,4c-15.36-.23-30.72-.09-46.09-.09h-6.78c2.37-2.53,3.85-4.2,5.42-5.78q98.6-98.8,197.16-197.62c1.42-1.42,3.68-2.33,3.74-4.84,2.51.46,1.09,2.4,1.1,3.51C598,22.22,598,40.93,598,59.65Z"/><path class="cls-1" d="M.32,539.16c2.19-.66,3.3-2.62,4.78-4.09q70.16-70.23,140.21-140.59a12.11,12.11,0,0,1,9.63-4c15.36.24,30.73.1,46.09.1h6.78c-2.36,2.52-3.85,4.2-5.42,5.78Q103.8,495.14,5.23,594c-1.42,1.42-3.67,2.32-3.74,4.84C-1,598.34.4,596.41.4,595.3.29,576.59.32,557.87.32,539.16Z"/><path class="cls-3" d="M598,512.26c-1.71.32-2.32-1.19-3.2-2.08q-58.34-58.37-116.6-116.79c-.54-.54-1-1.16-2.36-2.76H598Z"/><path class="cls-3" d="M.32,86.55c1.71-.32,2.32,1.19,3.2,2.08Q61.86,147,120.12,205.42c.54.54,1,1.17,2.36,2.76H.32Z"/><path class="cls-3" d="M598,208.18H505.73c.12-.68,0-1.35.32-1.64q45.94-46,91.95-91.92Z"/><path class="cls-3" d="M.32,390.63H92.59c-.12.68,0,1.35-.31,1.64q-46,46-92,91.92Z"/></g></g></svg>