<svg xmlns="http://www.w3.org/2000/svg" viewBox="0 0 606.21 606.21"><defs><style>.cls-1{fill:#2f52b2;}.cls-2{fill:#d70027;}.cls-3{fill:#efefef;}</style></defs><g id="Capa_2" data-name="Capa 2"><g id="Capa_1-2" data-name="Capa 1"><path class="cls-1" d="M.08,326.78V.11h303q.1,37.88.2,75.75V303.11c-.06,5.51-.59,11.06-.07,16.52.57,5.89-1.58,7-7.16,7q-144.15-.27-288.31-.12C5.19,326.53,2.63,326.69.08,326.78Zm226-65.14c3.28-.57,5.34-3.15,7.86-4.93,8.21-5.8,8.15-5.87,16.08-.09,2.46,1.79,4.93,3.55,7.4,5.33a54.28,54.28,0,0,0-3.53-15.22c-1-2.73-.33-4.28,1.93-5.94,4.14-3,8.75-5.53,12.94-10.19-5.75,0-10.47-.24-15.15.08-3.88.26-5.59-1.18-6.51-4.91-1.2-4.82-3.09-9.48-5-15.31-2,6.21-3.84,11.19-5.28,16.28-.85,3-2.37,4.07-5.46,3.92-5-.23-10-.06-15-.06a30.5,30.5,0,0,0,7.1,6.69c9.72,7.43,8.23,3.66,5.06,14.9-.89,3.16-2.95,6.05-2.28,9.58-.68-.29-.89-.11-.58.58Zm-149.07,0c.1.37,0,1.12.66.28l-.77-.15c.68-3.32-1.2-6.07-2.12-9-3-9.68-3.09-9.66,4.9-15.49,2.47-1.8,4.93-3.63,7.4-5.45a55.09,55.09,0,0,0-15.31-1.17c-3.1.15-4.6-1-5.45-3.93-1.44-5.08-3.25-10.06-5.3-16.27-2,6-3.87,10.58-5,15.33-.92,3.76-2.68,5.14-6.53,4.89-4.75-.32-9.54-.08-14.31-.08A63.72,63.72,0,0,0,47.3,240.81c2.35,1.59,2.93,3.21,1.92,5.93-1.75,4.72-3.11,9.58-4.95,15.4,5.62-2.53,9.32-5.74,13.06-8.72,2.87-2.29,4.82-2,7.6.1C68.82,256.42,72.3,260,77.05,261.64Zm149.1-73.35c4.83-2.18,8.73-5.76,12.94-8.84,2.27-1.66,3.8-1.66,6.08,0,4.2,3.09,8.09,6.68,12.93,8.84a2,2,0,0,0,.28.42s.21,0,.32-.07l-.69-.23c.38-5.29-2.42-9.79-3.91-14.58-1-3.22-.61-5,2.17-6.87,4.17-2.75,8.11-5.83,12.14-8.77A59.78,59.78,0,0,0,252.83,157c-3.08.12-4.61-1-5.45-4-1.44-5.08-3.24-10-5.24-16.1-2,5.85-3.83,10.6-5.11,15.5-.91,3.49-2.61,4.68-6.19,4.65-4.86-.05-9.84-.8-15.54.71,4.73,3.45,8.58,6.48,12.67,9.16,2.8,1.85,3.11,3.68,2.14,6.88-1.45,4.8-4.31,9.28-3.88,14.58l-.71.19c.11,0,.29.15.33.12A2.28,2.28,0,0,0,226.15,188.29Zm-181.09,0c4.46-1.75,7.94-5,11.63-7.89,3.1-2.41,5.34-2.9,8.6-.14,3.46,2.93,7,5.94,11.82,8-.16-4.6-1.73-8.28-3.26-11.79-2.17-5-1.63-8.34,3.46-11.06,3.58-1.92,6.67-4.76,10.61-7.64a33.52,33.52,0,0,0-13-.63c-5.86.63-8.6-1.65-9.74-7.25-.81-4-2.5-7.82-4.19-12.88-1.94,5.81-3.77,10.2-4.82,14.78-1,4.37-3.33,5.48-7.52,5.33-4.51-.16-9.15-.79-14.39.75,4.74,3.46,8.79,6.58,13,9.44,2.35,1.59,2.78,3.18,2,5.94-1.49,5-4.35,9.69-4.12,15.18l-.68.23c.11,0,.28.12.33.07A1.85,1.85,0,0,0,45.06,188.28Zm181.47-72.72c14.79-13,14.8-13,30-1.28a15.59,15.59,0,0,1,1.21,1.23,1.51,1.51,0,0,1,.45-.18c.57,0,.64-.14.14-.36-.1,0-.43.42-.65.65,1.4-5.61-2.1-10.17-3.53-15.11-1-3.53-.48-5.37,2.48-7.3,4.17-2.7,8.06-5.81,12.07-8.75a27.49,27.49,0,0,0-11-1c-6.72.89-10.78-1-11.77-8.37-.49-3.62-2.27-7.06-3.8-11.56-1.89,5.61-3.8,10.17-4.91,14.92-1,4.14-3.1,5.28-7.09,5-4.7-.33-9.45-.08-14.18-.08a57,57,0,0,0,11.7,9.86c3,1.94,3.4,3.84,2.43,7.32-1.37,4.95-4.94,9.49-3.52,15.07-.29-.22-.32-1.18-1-.35Zm-149.89,0a1.6,1.6,0,0,1,.48-.19c.58,0,.65-.21.12-.42-.11,0-.43.46-.65.72,1.42-5.82-2.31-10.5-3.67-15.67-.8-3-.41-4.68,2.13-6.39,4.29-2.88,8.37-6.07,12.53-9.13a51.13,51.13,0,0,0-14.53-1c-4,.27-6.12-.86-7.08-5-1.11-4.75-3-9.31-4.91-15-1.84,5.52-3.69,9.9-4.71,14.46s-3.44,5.94-7.9,5.56-9.07-.09-13.61-.09a58.5,58.5,0,0,0,11.7,9.85c3,1.92,3.53,3.75,2.49,7.29-1.43,4.94-4.9,9.5-3.57,15.08-.28-.2-.35-1.1-.94-.29l.92.24c15.26-13,15.82-13.06,30.85-.44A3.64,3.64,0,0,1,76.64,115.54Zm58.35-1.2.95.79c4.12-3,8.38-5.79,12.33-9,2.44-2,4.17-1.83,6.66,0,4.11,3,7.9,6.6,13.52,9.06-1.73-5.35-2.9-9.92-4.7-14.23-1.62-3.86-.54-6,2.8-8.18,3.91-2.58,8.1-5,11.8-9.44-5.1,0-9.24-.33-13.29.09-5.14.53-8-1-9-6.4-.76-4.11-2.59-8-4.44-13.49-1.51,4.38-2.5,7.26-3.5,10.14-4,11.56-.75,9.38-13,9.65-3.22.07-6.43,0-9.65,0A54.11,54.11,0,0,0,137.1,93.2c3,1.9,3.82,3.87,2.49,7.25C137.8,105,136.5,109.7,135,114.34Zm42.71,43.94-.28-1.29c-5,0-10.06-.14-15.08,0-3.06.12-4.64-1-5.47-4-1.34-4.82-3.09-9.53-4.66-14.29a57.8,57.8,0,0,0-5.9,14.24c-.83,3-2.36,4-5.44,4-5,0-10.13-.64-16.19.69,3.24,2.36,5.75,4.19,8.27,6,8,5.77,7.94,5.77,5,14.85-1,3.13-2,6.29-3.44,11.06,5.56-4,9.9-6.92,14-10.15,2.25-1.78,3.88-1.83,6.15,0,4.1,3.25,8.45,6.16,14.09,10.22-1.95-6.1-3-10.67-4.88-14.94-1.74-4.08-.63-6.4,3-8.6C170.61,163.84,174.08,160.94,177.7,158.28ZM126.18,230.6l-.57,1.37c4.08,3,8.08,6,12.27,8.84,2.36,1.58,2.91,3.17,1.91,5.88-1.83,4.92-3.27,10-5.36,16.54,5.51-4,9.88-6.83,13.91-10.1,2.48-2,4.21-1.83,6.61.09,4,3.21,8.31,6.06,13.69,9.93-1.38-4.52-2.26-7.51-3.21-10.46-3.13-9.66-3.14-9.64,4.79-15.4,2.46-1.78,4.88-3.62,7.32-5.44a49.92,49.92,0,0,0-14.83-1.18c-3.34.2-5-1-5.9-4.19-1.34-4.8-3.08-9.49-4.66-14.22a54.13,54.13,0,0,0-5.64,13.81c-.91,3.41-2.56,4.85-6.21,4.61C135.61,230.37,130.89,230.6,126.18,230.6Z"/><ellipse class="cls-2" cx="303.08" cy="416.73" rx="428.51" ry="53.56"/><ellipse class="cls-3" cx="303.08" cy="492.48" rx="428.51" ry="53.56"/><path class="cls-2" d="M.08,530.35h606c0,23.67-.13,47.35.12,71,0,4.06-.8,4.85-4.85,4.85Q317.58,606,33.81,606.1c-10.06,0-20.12-.13-30.18.08-3,.06-3.65-.67-3.63-3.63C.14,578.48.08,554.42.08,530.35Z"/><path class="cls-3" d="M606.09,378.86H.08V326.78c2.55-.09,5.11-.25,7.66-.25q144.15,0,288.31.12c5.58,0,7.73-1.13,7.16-7-.52-5.46,0-11,.07-16.52H606.09Z"/><path class="cls-3" d="M303.28,75.86Q303.19,38,303.08.11,452.23.11,601.36,0c4,0,4.89.79,4.85,4.85-.25,23.67-.12,47.34-.12,71Z"/><path class="cls-2" d="M303.28,75.86H606.09v75.75H303.28Z"/><path class="cls-3" d="M303.28,151.61H606.09v75.75H303.28Z"/><path class="cls-2" d="M303.28,227.36H606.09v75.75H303.28Z"/><path class="cls-3" d="M135,114.34c1.51-4.64,2.81-9.36,4.6-13.89,1.33-3.38.48-5.35-2.49-7.25a54.11,54.11,0,0,1-11.62-9.84c3.22,0,6.43.06,9.65,0,12.22-.27,8.93,1.91,13-9.65,1-2.88,2-5.76,3.5-10.14,1.85,5.47,3.68,9.38,4.44,13.49,1,5.45,3.88,6.93,9,6.4,4.05-.42,8.19-.09,13.29-.09-3.7,4.44-7.89,6.86-11.8,9.44-3.34,2.2-4.42,4.32-2.8,8.18,1.8,4.31,3,8.88,4.7,14.23-5.62-2.46-9.41-6-13.52-9.06-2.49-1.83-4.22-2-6.66,0-4,3.19-8.21,6-12.33,9Z"/><path class="cls-3" d="M45.48,115.61C44.13,110,47.6,105.44,49,100.5c1-3.54.47-5.37-2.49-7.29a58.5,58.5,0,0,1-11.7-9.85c4.54,0,9.1-.3,13.61.09s6.87-.94,7.9-5.56S59.22,69,61.06,63.43c1.91,5.69,3.8,10.25,4.91,15,1,4.15,3.1,5.28,7.08,5a51.13,51.13,0,0,1,14.53,1c-4.16,3.06-8.24,6.25-12.53,9.13C72.51,95.3,72.12,97,72.92,100c1.36,5.17,5.09,9.85,3.67,15.67l0-.08a1.78,1.78,0,0,0-.33-.48c-15-12.62-15.59-12.61-30.85.44Z"/><path class="cls-3" d="M226.56,115.64c-1.43-5.61,2.14-10.15,3.51-15.1,1-3.48.6-5.38-2.43-7.32a57,57,0,0,1-11.7-9.86c4.73,0,9.48-.25,14.18.08,4,.27,6.11-.87,7.09-5,1.11-4.75,3-9.31,4.91-14.92,1.53,4.5,3.31,7.94,3.8,11.56,1,7.33,5.05,9.26,11.77,8.37a27.49,27.49,0,0,1,11,1c-4,2.94-7.9,6.05-12.07,8.75-3,1.93-3.5,3.77-2.48,7.3,1.43,4.94,4.93,9.5,3.53,15.11l0-.07a10.34,10.34,0,0,0-1.2-1.27c-15.18-11.75-15.19-11.75-30,1.28Z"/><path class="cls-3" d="M45.14,188.41c-.23-5.49,2.63-10.16,4.12-15.18.82-2.76.39-4.35-2-5.94-4.21-2.86-8.26-6-13-9.44,5.24-1.54,9.88-.91,14.39-.75,4.19.15,6.52-1,7.52-5.33,1-4.58,2.88-9,4.82-14.78,1.69,5.06,3.38,8.88,4.19,12.88,1.14,5.6,3.88,7.88,9.74,7.25a33.52,33.52,0,0,1,13,.63c-3.94,2.88-7,5.72-10.61,7.64-5.09,2.72-5.63,6.07-3.46,11.06,1.53,3.51,3.1,7.19,3.26,11.79-4.78-2.05-8.36-5.06-11.82-8-3.26-2.76-5.5-2.27-8.6.14-3.69,2.86-7.17,6.14-11.63,7.89Z"/><path class="cls-3" d="M258.1,188.29c-4.84-2.16-8.73-5.75-12.93-8.84-2.28-1.66-3.81-1.66-6.08,0-4.21,3.08-8.11,6.66-12.94,8.84l.08.13c-.43-5.3,2.43-9.78,3.88-14.58,1-3.2.66-5-2.14-6.88-4.09-2.68-7.94-5.71-12.67-9.16,5.7-1.51,10.68-.76,15.54-.71,3.58,0,5.28-1.16,6.19-4.65,1.28-4.9,3.15-9.65,5.11-15.5,2,6.05,3.8,11,5.24,16.1.84,3,2.37,4.12,5.45,4a59.78,59.78,0,0,1,15.58,1.15c-4,2.94-8,6-12.14,8.77-2.78,1.83-3.16,3.65-2.17,6.87,1.49,4.79,4.29,9.29,3.91,14.58Z"/><path class="cls-3" d="M177.7,158.28c-3.62,2.66-7.09,5.56-10.9,7.89-3.58,2.2-4.69,4.52-3,8.6,1.83,4.27,2.93,8.84,4.88,14.94-5.64-4.06-10-7-14.09-10.22-2.27-1.8-3.9-1.75-6.15,0-4.09,3.23-8.43,6.14-14,10.15,1.48-4.77,2.43-7.93,3.44-11.06,2.95-9.08,3-9.08-5-14.85-2.52-1.82-5-3.65-8.27-6,6.06-1.33,11.16-.7,16.19-.69,3.08,0,4.61-1.07,5.44-4a57.8,57.8,0,0,1,5.9-14.24c1.57,4.76,3.32,9.47,4.66,14.29.83,3,2.41,4.09,5.47,4,5-.19,10,0,15.08,0Z"/><path class="cls-3" d="M77.05,261.64c-4.75-1.63-8.23-5.22-12.12-8.12-2.78-2.07-4.73-2.39-7.6-.1-3.74,3-7.44,6.19-13.06,8.72,1.84-5.82,3.2-10.68,4.95-15.4,1-2.72.43-4.34-1.92-5.93A63.72,63.72,0,0,1,35.19,230.6c4.77,0,9.56-.24,14.31.08,3.85.25,5.61-1.13,6.53-4.89,1.16-4.75,3-9.32,5-15.33,2,6.21,3.86,11.19,5.3,16.27.85,3,2.35,4.08,5.45,3.93a55.09,55.09,0,0,1,15.31,1.17c-2.47,1.82-4.93,3.65-7.4,5.45-8,5.83-7.94,5.81-4.9,15.49.92,2.93,2.8,5.68,2.12,9Z"/><path class="cls-3" d="M226.22,261.77c-.67-3.53,1.39-6.42,2.28-9.58,3.17-11.24,4.66-7.47-5.06-14.9a30.5,30.5,0,0,1-7.1-6.69c5,0,10-.17,15,.06,3.09.15,4.61-.94,5.46-3.92,1.44-5.09,3.24-10.07,5.28-16.28,2,5.83,3.85,10.49,5,15.31.92,3.73,2.63,5.17,6.51,4.91,4.68-.32,9.4-.08,15.15-.08-4.19,4.66-8.8,7.15-12.94,10.19-2.26,1.66-2.94,3.21-1.93,5.94A54.28,54.28,0,0,1,257.46,262c-2.47-1.78-4.94-3.54-7.4-5.33-7.93-5.78-7.87-5.71-16.08.09-2.52,1.78-4.58,4.36-7.86,4.93Z"/><path class="cls-3" d="M126.18,230.6c4.71,0,9.43-.23,14.12.08,3.65.24,5.3-1.2,6.21-4.61a54.13,54.13,0,0,1,5.64-13.81c1.58,4.73,3.32,9.42,4.66,14.22.9,3.22,2.56,4.39,5.9,4.19a49.92,49.92,0,0,1,14.83,1.18c-2.44,1.82-4.86,3.66-7.32,5.44-7.93,5.76-7.92,5.74-4.79,15.4.95,2.95,1.83,5.94,3.21,10.46-5.38-3.87-9.68-6.72-13.69-9.93-2.4-1.92-4.13-2.11-6.61-.09-4,3.27-8.4,6.14-13.91,10.1,2.09-6.55,3.53-11.62,5.36-16.54,1-2.71.45-4.3-1.91-5.88-4.19-2.8-8.19-5.88-12.27-8.84Z"/><path class="cls-3" d="M45.44,115.53l-.92-.24c.59-.81.66.09.95.3Z"/><path class="cls-3" d="M76.59,115.65c.22-.26.54-.76.65-.72.53.21.46.4-.12.42a1.54,1.54,0,0,0-.49.2Z"/><path class="cls-3" d="M226.53,115.56l-1-.3c.66-.83.69.13,1,.37C226.56,115.64,226.53,115.56,226.53,115.56Z"/><path class="cls-3" d="M257.66,115.62c.22-.23.55-.69.65-.65.5.22.43.39-.14.36a1.29,1.29,0,0,0-.46.2A.36.36,0,0,1,257.66,115.62Z"/><path class="cls-3" d="M45.06,188.28a1.85,1.85,0,0,1-.27.43s-.22,0-.33-.07l.68-.23Z"/><path class="cls-3" d="M226.15,188.29a2.28,2.28,0,0,1-.3.44s-.22-.08-.33-.12l.71-.19Z"/><path class="cls-3" d="M258,188.41l.69.23c-.11,0-.28.11-.32.07a2,2,0,0,1-.28-.42Z"/><path class="cls-3" d="M76.94,261.77l.77.15c-.61.84-.56.09-.66-.28Z"/><path class="cls-3" d="M226.12,261.64l-.48.71c-.31-.69-.1-.87.58-.58Z"/></g></g></svg>