<svg xmlns="http://www.w3.org/2000/svg" viewBox="0 0 600 600"><defs><style>.cls-1{fill:#0052b3;}.cls-2{fill:#d70127;}.cls-3{fill:#efefef;}</style></defs><g id="Capa_2" data-name="Capa 2"><g id="Capa_1-2" data-name="Capa 1"><path class="cls-1" d="M.11,409V191.06q142.48,0,285,.06,157.41,0,314.81-.06V409q-141.31,0-282.62-.06Q158.68,408.91.11,409Z"/><path class="cls-2" d="M.11,96.18C.11,65.94.21,35.7,0,5.46,0,1.2.75,0,5.31,0q177,.22,354.09.12Q477.33.12,595.27,0C599.42,0,600,1,600,4.88c-.19,30.43-.11,60.86-.11,91.3-1.75-.05-3.5-.15-5.26-.15Q300,96,5.37,96C3.61,96,1.86,96.13.11,96.18Z"/><path class="cls-2" d="M599.88,503.83c0,30.46-.1,60.92.12,91.37,0,4-.79,4.8-4.8,4.8q-280.86-.19-561.7-.11c-10,0-19.92-.13-29.87.08C.69,600,0,599.3,0,596.37c.13-30.84.08-61.69.08-92.54,1.75.06,3.5.15,5.26.15H594.62C596.38,504,598.13,503.89,599.88,503.83Z"/><path class="cls-3" d="M.11,96.18c1.75-.05,3.5-.15,5.26-.15Q300,96,594.62,96c1.76,0,3.51.1,5.26.15v94.88q-157.39,0-314.81.06-142.47,0-285-.06Z"/><path class="cls-3" d="M599.88,503.83c-1.75.06-3.5.15-5.26.15H5.37c-1.76,0-3.51-.09-5.26-.15V409q158.58,0,317.15-.06,141.32,0,282.62.06Z"/></g></g></svg>